# xmcd
#
# Track frame offsets: 
#        150
#        18276
#        29950
#        45982
#        61472
#        74904
#        88013
#        102472
#        120843
#        135989
#        156372
#        174051
#        188889
#
# Disc length: 2733 seconds
#
# Revision: 0
# Processed by: cddbd v1.5.2PL0 Copyright (c) Steve Scherf et al.
# Submitted via: ExactAudioCopyFreeDBPlugin 1.0
#
DISCID=ad0aab0d
DTITLE=John "Blues" Boyd - The Real Deal
DYEAR=2016
DGENRE=Blues
TTITLE0=I Am The Real Deal
TTITLE1=You Will Discover
TTITLE2=I'm Like A Stranger To You
TTITLE3=That's Big!
TTITLE4=The Smoking Pig
TTITLE5=That Certain Day
TTITLE6=Donna Mae
TTITLE7=I'm So Weak Right Now
TTITLE8=When Your Eyes Met Mine
TTITLE9=Screaming In The Night
TTITLE10=(Have You Ever Been To) Marvin Gardens
TTITLE11=Be Careful WIth Your Love
TTITLE12=John, The Blues Is Calling You
EXTD=
EXTT0=
EXTT1=
EXTT2=
EXTT3=
EXTT4=
EXTT5=
EXTT6=
EXTT7=
EXTT8=
EXTT9=
EXTT10=
EXTT11=
EXTT12=
PLAYORDER=
